<svg width="164" height="164" viewBox="0 0 164 164" fill="none" xmlns="http://www.w3.org/2000/svg">
<circle cx="82" cy="82" r="81" fill="#FB88B4" stroke="black" stroke-width="2"/>
<line x1="72" y1="111" x2="92" y2="111" stroke="black" stroke-width="2"/>
<path d="M64 61.5C64 68.5599 59.1546 74 53.5 74C47.8454 74 43 68.5599 43 61.5C43 54.4401 47.8454 49 53.5 49C59.1546 49 64 54.4401 64 61.5Z" fill="white" stroke="black" stroke-width="2"/>
<path d="M54 64C54 64 55.5 62 57.5 62C59.5 62 60.5 63 60.5 63" stroke="black" stroke-width="2"/>
<path d="M122 60.5C122 67.5599 117.155 73 111.5 73C105.845 73 101 67.5599 101 60.5C101 53.4401 105.845 48 111.5 48C117.155 48 122 53.4401 122 60.5Z" fill="white" stroke="black" stroke-width="2"/>
<path d="M105 62.9001C105 62.9001 107.049 61.4682 108.949 62.0925C110.849 62.7167 111.487 63.9789 111.487 63.9789" stroke="black" stroke-width="2"/>
</svg>
